<svg width="175px" height="182px"
 viewBox="0.00 0.00 175.46 182.00" xmlns="http://www.w3.org/2000/svg" xmlns:xlink="http://www.w3.org/1999/xlink">
<g id="graph0" class="graph" transform="scale(1.0 1.0) rotate(0) translate(4 178)">
<title>de.uniks.pmws2021.chat.model</title>
<polygon fill="white" stroke="transparent" points="-4,4 -4,-178 171.46,-178 171.46,4 -4,4"/>
<!-- Chat -->
<g id="node1" class="node">
<title>Chat</title>
<polygon fill="none" stroke="black" points="15.46,-148 15.46,-170 159.46,-170 159.46,-148 15.46,-148"/>
<text text-anchor="start" x="74.24" y="-154.4" font-family="Times,serif" font-size="14.00">Chat</text>
<polygon fill="none" stroke="black" points="15.46,-126 15.46,-148 159.46,-148 159.46,-126 15.46,-126"/>
<text text-anchor="start" x="18.46" y="-132.4" font-family="Times,serif" font-size="14.00">currentUsername :String</text>
</g>
<!-- User -->
<g id="node2" class="node">
<title>User</title>
<polygon fill="none" stroke="black" points="42.46,-60 42.46,-82 133.46,-82 133.46,-60 42.46,-60"/>
<text text-anchor="start" x="74.74" y="-66.4" font-family="Times,serif" font-size="14.00">User</text>
<polygon fill="none" stroke="black" points="42.46,-4 42.46,-60 133.46,-60 133.46,-4 42.46,-4"/>
<text text-anchor="start" x="45.46" y="-44.4" font-family="Times,serif" font-size="14.00">name :String</text>
<text text-anchor="start" x="45.46" y="-27.6" font-family="Times,serif" font-size="14.00">ip :String</text>
<text text-anchor="start" x="45.46" y="-10.8" font-family="Times,serif" font-size="14.00">status :Boolean</text>
</g>
<!-- User&#45;&gt;Chat -->
<g id="edge1" class="edge">
<title>User&#45;&gt;Chat</title>
<path fill="none" stroke="black" d="M87.46,-86.19C87.46,-98.3 87.46,-111.12 87.46,-121.86"/>
<text text-anchor="middle" x="75.8" y="-109.26" font-family="Times,serif" font-size="14.00">chat</text>
<text text-anchor="middle" x="43.73" y="-90.39" font-family="Times,serif" font-size="14.00">availableUser *</text>
</g>
</g>
</svg>
